<?xml version="1.0" ?><!-- Uploaded to: SVG Repo, www.svgrepo.com, Generator: SVG Repo Mixer Tools -->
<svg width="800px" height="800px" viewBox="0 0 2050 2050" data-name="Layer 2" id="Layer_2" xmlns="http://www.w3.org/2000/svg"><defs><style>.cls-1{fill:#4d4c78;}.cls-2{fill:#323150;}.cls-3{fill:#f4c23f;}.cls-4{fill:#f4a93f;}.cls-5{fill:#fad564;}.cls-6{fill:#64639c;}</style></defs><title/><path class="cls-1" d="M1680.3,806.5H353.5a20,20,0,0,1,0-40H1680.3a20,20,0,1,1,0,40Z"/><path class="cls-1" d="M1680.3,1154.9H353.5a20,20,0,0,1,0-40H1680.3a20,20,0,0,1,0,40Z"/><path class="cls-1" d="M1680.3,458.2H353.5a20,20,0,0,1,0-40H1680.3a20,20,0,0,1,0,40Z"/><path class="cls-1" d="M1680.3,1503.2H353.5a20,20,0,0,1,0-40H1680.3a20,20,0,0,1,0,40Z"/><path class="cls-2" d="M1680.3,791.8H353.5a20.2,20.2,0,0,1-18.6-12.7,20.3,20.3,0,0,0-1.4,7.4,20,20,0,0,0,20,20H1680.3a19.9,19.9,0,0,0,20-20,20.3,20.3,0,0,0-1.4-7.4A20.1,20.1,0,0,1,1680.3,791.8Z"/><path class="cls-2" d="M1680.3,1140.1H353.5a20.1,20.1,0,0,1-18.6-12.6,20,20,0,0,0,18.6,27.4H1680.3a20,20,0,0,0,18.6-27.4A20,20,0,0,1,1680.3,1140.1Z"/><path class="cls-2" d="M1680.3,443.4H353.5a20.1,20.1,0,0,1-18.6-12.6,20.3,20.3,0,0,0-1.4,7.4,20.1,20.1,0,0,0,20,20H1680.3a20,20,0,0,0,20-20,20.3,20.3,0,0,0-1.4-7.4A20,20,0,0,1,1680.3,443.4Z"/><path class="cls-2" d="M1680.3,1488.5H353.5a20.2,20.2,0,0,1-18.6-12.7,20.3,20.3,0,0,0-1.4,7.4,20.1,20.1,0,0,0,20,20H1680.3a20,20,0,0,0,20-20,20.3,20.3,0,0,0-1.4-7.4A20.1,20.1,0,0,1,1680.3,1488.5Z"/><rect class="cls-3" height="269.18" rx="59.1" ry="59.1" width="118.1" x="648.9" y="651.9"/><path class="cls-4" d="M731,889.1h0A59.2,59.2,0,0,1,671.9,830V679a59.3,59.3,0,0,1,2.4-16.5A58.7,58.7,0,0,0,648.9,711V862a59,59,0,0,0,59,59.1h0a59,59,0,0,0,56.7-42.6A58.1,58.1,0,0,1,731,889.1Z"/><rect class="cls-5" height="148.79" rx="29.5" ry="29.5" width="59.1" x="707.9" y="699.2"/><rect class="cls-3" height="269.18" rx="59.1" ry="59.1" width="118.1" x="965.9" y="651.9"/><path class="cls-4" d="M1048.1,889.1h0A59.1,59.1,0,0,1,989,830V679a59.3,59.3,0,0,1,2.3-16.5A59,59,0,0,0,965.9,711V862a59.1,59.1,0,0,0,59.1,59.1h0a59,59,0,0,0,56.7-42.6A58.1,58.1,0,0,1,1048.1,889.1Z"/><rect class="cls-5" height="148.79" rx="29.5" ry="29.5" width="59.1" x="1025" y="699.2"/><rect class="cls-3" height="269.18" rx="59.1" ry="59.1" width="118.1" x="1328.8" y="651.9"/><path class="cls-4" d="M1410.9,889.1h0a59.2,59.2,0,0,1-59.1-59.1V679a59.3,59.3,0,0,1,2.4-16.5,58.7,58.7,0,0,0-25.4,48.5V862a59,59,0,0,0,59.1,59.1h0a59.2,59.2,0,0,0,56.7-42.6A58.6,58.6,0,0,1,1410.9,889.1Z"/><rect class="cls-5" height="148.79" rx="29.5" ry="29.5" width="59.1" x="1387.9" y="699.2"/><rect class="cls-3" height="269.18" rx="59.1" ry="59.1" width="118.1" x="1385.5" y="1000.3"/><path class="cls-4" d="M1467.6,1237.4h0a59,59,0,0,1-59-59V1027.3a59.8,59.8,0,0,1,2.3-16.5,59.1,59.1,0,0,0-25.4,48.5v151.1a59,59,0,0,0,59.1,59h0a59.1,59.1,0,0,0,56.7-42.5A59.3,59.3,0,0,1,1467.6,1237.4Z"/><rect class="cls-5" height="148.79" rx="29.5" ry="29.5" width="59.1" x="1444.6" y="1047.5"/><rect class="cls-3" height="269.18" rx="59.1" ry="59.1" width="118.1" x="810.9" y="1000.3"/><path class="cls-4" d="M893,1237.4h0a59.1,59.1,0,0,1-59.1-59V1027.3a59.8,59.8,0,0,1,2.4-16.5,58.9,58.9,0,0,0-25.4,48.5v151.1a59,59,0,0,0,59,59h0a59.2,59.2,0,0,0,56.8-42.5A59.3,59.3,0,0,1,893,1237.4Z"/><rect class="cls-5" height="148.79" rx="29.5" ry="29.5" width="59.1" x="869.9" y="1047.5"/><rect class="cls-3" height="269.18" rx="59.1" ry="59.1" width="118.1" x="507.7" y="1000.3"/><path class="cls-4" d="M589.8,1237.4h0a59,59,0,0,1-59-59V1027.3a59.8,59.8,0,0,1,2.3-16.5,59.1,59.1,0,0,0-25.4,48.5v151.1a59,59,0,0,0,59.1,59h0a59,59,0,0,0,56.7-42.5A59.3,59.3,0,0,1,589.8,1237.4Z"/><rect class="cls-5" height="148.79" rx="29.5" ry="29.5" width="59.1" x="566.8" y="1047.5"/><rect class="cls-3" height="269.18" rx="59.1" ry="59.1" width="118.1" x="1251.7" y="1348.6"/><path class="cls-4" d="M1333.8,1585.8h0a59.1,59.1,0,0,1-59-59.1V1375.6a60.3,60.3,0,0,1,2.3-16.5,59.3,59.3,0,0,0-25.4,48.6v151a59.2,59.2,0,0,0,59.1,59.1h0a59,59,0,0,0,56.7-42.6A58.6,58.6,0,0,1,1333.8,1585.8Z"/><rect class="cls-5" height="148.79" rx="29.5" ry="29.5" width="59.1" x="1310.8" y="1395.9"/><rect class="cls-3" height="269.18" rx="59.1" ry="59.1" width="118.1" x="1041.5" y="1348.6"/><path class="cls-4" d="M1123.7,1585.8h0a59.1,59.1,0,0,1-59.1-59.1V1375.6a56.8,56.8,0,0,1,2.4-16.5,59.1,59.1,0,0,0-25.5,48.6v151a59.2,59.2,0,0,0,59.1,59.1h0a59,59,0,0,0,56.7-42.6A58.1,58.1,0,0,1,1123.7,1585.8Z"/><rect class="cls-5" height="148.79" rx="29.5" ry="29.5" width="59.1" x="1100.6" y="1395.9"/><rect class="cls-3" height="269.18" rx="59.1" ry="59.1" width="118.1" x="647.7" y="1348.6"/><path class="cls-4" d="M729.8,1585.8h0a59.1,59.1,0,0,1-59-59.1V1375.6a60.3,60.3,0,0,1,2.3-16.5,59.3,59.3,0,0,0-25.4,48.6v151a59.1,59.1,0,0,0,59.1,59.1h0a59.2,59.2,0,0,0,56.7-42.6A58.6,58.6,0,0,1,729.8,1585.8Z"/><rect class="cls-5" height="148.79" rx="29.5" ry="29.5" width="59.1" x="706.8" y="1395.9"/><path class="cls-1" d="M353.5,1727.4H271.4a20,20,0,0,1-20-20V214a19.9,19.9,0,0,1,20-20h82.1a20,20,0,0,1,20,20V1707.4A20.1,20.1,0,0,1,353.5,1727.4Z"/><path class="cls-1" d="M1778.6,1727.4h-82.1a20.1,20.1,0,0,1-20-20V214a20,20,0,0,1,20-20h82.1a19.9,19.9,0,0,1,20,20V1707.4A20,20,0,0,1,1778.6,1727.4Z"/><path class="cls-2" d="M313.7,1639.8a20.1,20.1,0,0,1-20-20V194H271.4a19.9,19.9,0,0,0-20,20V1707.4a20,20,0,0,0,20,20h82.1a20.1,20.1,0,0,0,20-20v-67.6Z"/><path class="cls-2" d="M1738.9,1639.8a20,20,0,0,1-20-20V194h-22.4a20,20,0,0,0-20,20V1707.4a20.1,20.1,0,0,0,20,20h82.1a20,20,0,0,0,20-20v-67.6Z"/><path class="cls-1" d="M1849.9,1856H200.1a19.9,19.9,0,0,1-20-20V1707.4a19.9,19.9,0,0,1,20-20H1849.9a19.9,19.9,0,0,1,20,20V1836A19.9,19.9,0,0,1,1849.9,1856Z"/><path class="cls-2" d="M259.1,1811.7a20.1,20.1,0,0,1-20-20V1687.4h-39a19.9,19.9,0,0,0-20,20V1836a19.9,19.9,0,0,0,20,20H1849.9a19.9,19.9,0,0,0,20-20v-24.3Z"/><rect class="cls-3" height="269.18" rx="59.1" ry="59.1" width="118.1" x="507.7" y="303.6"/><path class="cls-4" d="M589.8,540.7h0a59,59,0,0,1-59-59V330.6a60.3,60.3,0,0,1,2.3-16.5,59.1,59.1,0,0,0-25.4,48.5V513.7a59.1,59.1,0,0,0,59.1,59.1h0a59.1,59.1,0,0,0,56.7-42.6A59.3,59.3,0,0,1,589.8,540.7Z"/><rect class="cls-5" height="148.79" rx="29.5" ry="29.5" width="59.1" x="566.8" y="350.9"/><rect class="cls-3" height="269.18" rx="59.1" ry="59.1" width="118.1" x="1133.6" y="303.6"/><path class="cls-4" d="M1215.7,540.7h0a59,59,0,0,1-59-59V330.6a60.3,60.3,0,0,1,2.3-16.5,59.1,59.1,0,0,0-25.4,48.5V513.7a59.1,59.1,0,0,0,59.1,59.1h0a59.1,59.1,0,0,0,56.7-42.6A59.3,59.3,0,0,1,1215.7,540.7Z"/><rect class="cls-5" height="148.79" rx="29.5" ry="29.5" width="59.1" x="1192.7" y="350.9"/><rect class="cls-3" height="269.18" rx="59.1" ry="59.1" width="118.1" x="1369.8" y="303.6"/><path class="cls-4" d="M1452,540.7h0a59,59,0,0,1-59.1-59V330.6a56.8,56.8,0,0,1,2.4-16.5,58.9,58.9,0,0,0-25.5,48.5V513.7a59.2,59.2,0,0,0,59.1,59.1h0a59,59,0,0,0,56.7-42.6A58.7,58.7,0,0,1,1452,540.7Z"/><rect class="cls-5" height="148.79" rx="29.5" ry="29.5" width="59.1" x="1428.9" y="350.9"/><rect class="cls-6" height="59.41" rx="29.7" ry="29.7" width="1425.1" x="373.5" y="1687.4"/><rect class="cls-6" height="1172.25" rx="20" ry="20" width="40" x="333.5" y="303.6"/><rect class="cls-6" height="1172.25" rx="20" ry="20" width="40" x="1758.6" y="303.6"/></svg>