<?xml version="1.0" encoding="iso-8859-1"?>
<!-- Uploaded to: SVG Repo, www.svgrepo.com, Generator: SVG Repo Mixer Tools -->
<svg height="800px" width="800px" version="1.1" id="Layer_1" xmlns="http://www.w3.org/2000/svg" xmlns:xlink="http://www.w3.org/1999/xlink" 
	 viewBox="0 0 512 512" xml:space="preserve">
<circle style="fill:#5A6B96;" cx="44.039" cy="62.376" r="25.517"/>
<circle style="fill:#30C9B0;" cx="37.423" cy="304.495" r="25.517"/>
<circle style="fill:#FF7D46;" cx="185.798" cy="250.829" r="25.517"/>
<circle style="fill:#30C9B0;" cx="327.56" cy="194.691" r="25.517"/>
<circle style="fill:#FF7D46;" cx="474.573" cy="296.624" r="25.517"/>
<circle style="fill:#30C9B0;" cx="185.798" cy="138.576" r="25.517"/>
<circle style="fill:#FF7D46;" cx="327.56" cy="36.859" r="25.517"/>
<circle style="fill:#5A6B96;" cx="469.322" cy="138.576" r="25.517"/>
<polygon style="fill:#45CCFF;" points="500.093,408.442 327.563,380.09 185.801,345.5 18.522,408.442 18.522,500.66 500.093,500.66 
	"/>
<g>
	<path style="fill:#231F20;" d="M44.039,99.235c9.816,0,18.741-3.864,25.353-10.142l80.302,42.059
		c-0.493,2.4-0.752,4.885-0.752,7.427c0,20.324,16.535,36.858,36.858,36.858s36.858-16.534,36.858-36.858
		c0-3.052-0.38-6.016-1.082-8.855l85.311-62.367c5.901,4.012,13.018,6.361,20.676,6.361c9.407,0,17.998-3.547,24.518-9.369
		l83.703,58.979c-2.123,4.651-3.316,9.812-3.316,15.25c0,20.324,16.535,36.858,36.858,36.858c20.323,0,36.858-16.534,36.858-36.858
		s-16.535-36.858-36.858-36.858c-6.566,0-12.732,1.734-18.077,4.756l-87.674-61.778c0.55-2.528,0.847-5.149,0.847-7.84
		C364.422,16.534,347.887,0,327.564,0c-20.323,0-36.858,16.534-36.858,36.858c0,4.425,0.785,8.671,2.222,12.605l-83.379,60.954
		c-6.419-5.421-14.706-8.7-23.747-8.7c-9.587,0-18.328,3.681-24.89,9.702L80.257,69.178c0.414-2.206,0.64-4.476,0.64-6.801
		c0-20.324-16.535-36.858-36.858-36.858S7.181,42.052,7.181,62.376S23.716,99.235,44.039,99.235z M483.501,138.577
		c0,7.817-6.359,14.176-14.176,14.176s-14.176-6.359-14.176-14.176c0-7.817,6.359-14.176,14.176-14.176
		S483.501,130.761,483.501,138.577z M327.563,22.683c7.817,0,14.176,6.359,14.176,14.176s-6.359,14.176-14.176,14.176
		c-7.817,0-14.176-6.359-14.176-14.176S319.745,22.683,327.563,22.683z M185.801,124.401c7.817,0,14.176,6.359,14.176,14.176
		s-6.359,14.176-14.176,14.176c-7.817,0-14.176-6.359-14.176-14.176C171.624,130.76,177.983,124.401,185.801,124.401z M44.039,48.2
		c7.817,0,14.176,6.359,14.176,14.176s-6.359,14.176-14.176,14.176s-14.176-6.359-14.176-14.176S36.221,48.2,44.039,48.2z"/>
	<path style="fill:#231F20;" d="M37.423,341.349c20.323,0,36.858-16.534,36.858-36.858c0-0.604-0.017-1.206-0.045-1.803
		l85.425-25.908c6.681,6.729,15.932,10.902,26.141,10.902c20.323,0,36.858-16.534,36.858-36.858c0-1.458-0.094-2.895-0.261-4.311
		l76.841-28.272c6.766,8.122,16.95,13.302,28.324,13.302c9.389,0,17.964-3.534,24.479-9.335l87.695,62.399
		c-1.302,3.767-2.02,7.806-2.02,12.01c0,20.324,16.535,36.858,36.858,36.858c20.323,0,36.858-16.534,36.858-36.858
		c0-20.324-16.535-36.858-36.858-36.858c-7.882,0-15.188,2.495-21.186,6.725l-89.826-63.915c0.556-2.542,0.857-5.177,0.857-7.883
		c0-20.324-16.535-36.858-36.858-36.858c-20.323,0-36.858,16.534-36.858,36.858c0,0.838,0.039,1.668,0.094,2.493l-77.921,28.67
		c-6.739-7.301-16.381-11.884-27.077-11.884c-20.323,0-36.858,16.534-36.858,36.858c0,1.829,0.138,3.626,0.397,5.385l-83.188,25.231
		c-6.761-8.409-17.124-13.805-28.729-13.805c-20.323,0-36.858,16.534-36.858,36.858C0.565,324.815,17.1,341.349,37.423,341.349z
		 M474.575,282.443c7.817,0,14.176,6.359,14.176,14.176c0,7.817-6.359,14.176-14.176,14.176c-7.817,0-14.176-6.359-14.176-14.176
		C460.399,288.802,466.758,282.443,474.575,282.443z M327.563,180.511c7.817,0,14.176,6.359,14.176,14.176
		s-6.359,14.176-14.176,14.176c-7.817,0-14.176-6.359-14.176-14.176S319.745,180.511,327.563,180.511z M185.801,236.648
		c7.817,0,14.176,6.359,14.176,14.176s-6.359,14.176-14.176,14.176c-7.817,0-14.176-6.359-14.176-14.176
		S177.983,236.648,185.801,236.648z M37.423,290.315c7.817,0,14.176,6.359,14.176,14.176c0,7.817-6.359,14.176-14.176,14.176
		s-14.176-6.359-14.176-14.176C23.247,296.674,29.606,290.315,37.423,290.315z"/>
	<path style="fill:#231F20;" d="M501.931,397.252L329.829,368.97l-141.34-34.487c-2.218-0.542-4.545-0.401-6.682,0.403
		L14.527,397.828c-4.421,1.664-7.348,5.892-7.348,10.614v92.217c0,6.262,5.077,11.341,11.341,11.341h481.571
		c6.264,0,11.341-5.078,11.341-11.341v-92.217C511.434,402.889,507.412,398.153,501.931,397.252z M488.752,489.319H29.862v-26.817
		h101.124c6.264,0,11.341-5.078,11.341-11.341s-5.077-11.341-11.341-11.341H29.862v-23.527l156.653-58.945l138.359,33.76
		c0.281,0.069,0.565,0.126,0.849,0.172l163.027,26.792v71.246H488.752z"/>
	<path style="fill:#231F20;" d="M185.801,439.819h-2.646c-6.264,0-11.341,5.078-11.341,11.341s5.077,11.341,11.341,11.341h2.646
		c6.264,0,11.341-5.078,11.341-11.341S192.064,439.819,185.801,439.819z"/>
</g>
</svg>